<svg width="27" height="31" viewBox="0 0 27 31" fill="none" xmlns="http://www.w3.org/2000/svg">
<g id="&#237;&#152;&#156;&#237;&#131;&#157;">
<path id="Vector" d="M13.6564 30.8359C14.0511 30.8359 14.3894 30.4976 14.3894 30.1029V29.6237C21.1269 29.2572 26.5678 23.8727 26.9342 17.0506C26.9342 16.8532 26.8779 16.6559 26.7369 16.515C26.596 16.374 26.3986 16.2894 26.2013 16.2894H24.0024C23.6077 16.2894 23.2694 16.6277 23.2694 17.0224C23.2694 17.4171 23.6077 17.7553 24.0024 17.7553H25.412C24.7636 23.4217 20.1121 27.8194 14.3894 28.1859V10.3976H19.0972C19.4919 10.3976 19.8302 10.0593 19.8302 9.6646C19.8302 9.26993 19.4919 8.93163 19.0972 8.93163H14.3894V5.18226C15.4324 4.87216 16.2218 3.88548 16.2218 2.72966C16.2218 1.32012 15.0659 0.164307 13.6564 0.164307C12.2469 0.164307 11.091 1.32012 11.091 2.72966C11.091 3.88548 11.8522 4.87216 12.9234 5.18226V8.93163H8.21559C7.82092 8.93163 7.48262 9.26993 7.48262 9.6646C7.48262 10.0593 7.82092 10.3976 8.21559 10.3976H12.9234V28.1859C7.2007 27.8476 2.57742 23.4499 1.92903 17.7553H3.33857C3.73324 17.7553 4.07154 17.4171 4.07154 17.0224C4.07154 16.6277 3.73324 16.2894 3.33857 16.2894H1.13969C0.942356 16.2894 0.745031 16.374 0.604077 16.515C0.463123 16.6559 0.406738 16.8532 0.406738 17.0506C0.745028 23.8727 6.18585 29.2572 12.9516 29.6237V30.1029C12.9234 30.4976 13.2335 30.8359 13.6564 30.8359ZM12.557 2.67328C12.557 2.08127 13.0362 1.57385 13.6564 1.57385C14.2484 1.57385 14.7558 2.05308 14.7558 2.67328C14.7558 3.26528 14.2766 3.77272 13.6564 3.77272C13.0362 3.77272 12.557 3.29347 12.557 2.67328Z" fill="#333333"/>
</g>
</svg>
