<svg width="28" height="31" viewBox="0 0 28 31" fill="none" xmlns="http://www.w3.org/2000/svg">
<g id="&#234;&#179;&#160;&#234;&#176;&#157;&#236;&#132;&#188;&#237;&#132;&#176;">
<path id="Vector" d="M6.45892 25.9165C6.85359 25.9165 7.19188 25.5782 7.19188 25.1836V14.3583C7.19188 13.9636 6.85359 13.6253 6.45892 13.6253C5.35948 13.6253 4.26004 13.9354 3.30155 14.4993C2.70955 14.8375 2.20211 15.2886 1.77925 15.7678C1.86382 11.1727 3.32974 1.61607 13.8449 1.61607C21.2591 1.61607 25.7414 6.88774 25.9106 15.7396C25.4877 15.2604 24.9803 14.8094 24.3883 14.4711C23.4298 13.9072 22.3585 13.5971 21.2309 13.5971C20.8362 13.5971 20.4979 13.9354 20.4979 14.3301V25.1272C20.4979 25.5218 20.8362 25.8601 21.2309 25.8601C21.7947 25.8601 22.3585 25.7756 22.8941 25.6346V27.3824L17.3406 29.4404C16.9741 29.5813 16.7767 30.0042 16.9177 30.3707C17.0305 30.6526 17.3124 30.8499 17.5943 30.8499C17.6788 30.8499 17.7634 30.8217 17.848 30.7935L23.8808 28.5664C24.1627 28.4537 24.3601 28.2 24.3601 27.8899V25.0144C26.1643 23.9432 27.3765 21.9698 27.3765 19.7427V16.2189C27.3765 11.7084 26.277 7.81804 24.2191 5.02715C21.8511 1.84159 18.2709 0.150146 13.8731 0.150146C9.33438 0.150146 5.83872 1.75702 3.4707 4.94258C1.41277 7.70527 0.341522 11.5956 0.341522 16.2189V19.7427C0.313332 23.1538 3.07603 25.9165 6.45892 25.9165ZM21.9638 24.3942V15.1758C22.5559 15.2604 23.1197 15.4859 23.6271 15.796C25.0366 16.6417 25.9106 18.1359 25.9106 19.7991C25.9106 22.1108 24.1909 24.0277 21.9638 24.3942ZM4.03451 15.7678C4.54195 15.4577 5.10576 15.2604 5.69777 15.1476V24.366C3.4707 24.0277 1.75106 22.0826 1.75106 19.7427C1.77925 18.1077 2.62498 16.6136 4.03451 15.7678Z" fill="#333333"/>
</g>
</svg>
