<svg width="32" height="29" viewBox="0 0 32 29" fill="none" xmlns="http://www.w3.org/2000/svg">
<g id="&#236;&#158;&#165;&#235;&#176;&#148;&#234;&#181;&#172;&#235;&#139;&#136;">
<path id="Vector" d="M24.9808 25.0855C24.9808 23.4787 23.6559 22.1537 22.049 22.1537C20.6958 22.1537 19.54 23.084 19.2299 24.3526H17.9049C17.5666 23.084 16.439 22.1537 15.0859 22.1537C13.7327 22.1537 12.5769 23.084 12.2668 24.3526H12.1822V20.4904H25.009C25.2909 20.4904 25.5164 20.3495 25.6574 20.0958L31.5775 9.10136C31.6902 8.87583 31.6902 8.59393 31.5493 8.36841C31.4083 8.14288 31.1828 8.00193 30.9291 8.00193H8.17911L5.92385 1.46167C5.81109 1.17976 5.55737 0.982422 5.21908 0.982422H1.66705C1.27238 0.982422 0.934082 1.3207 0.934082 1.71538C0.934082 2.11005 1.27238 2.44835 1.66705 2.44835H4.71165L10.7163 19.8702V25.0855C10.7163 25.4802 11.0546 25.8185 11.4493 25.8185H12.2668C12.6051 27.0871 13.7327 28.0174 15.0859 28.0174C16.439 28.0174 17.5948 27.0871 17.9049 25.8185H19.2299C19.5682 27.0871 20.6958 28.0174 22.049 28.0174C23.6559 28.0174 24.9808 26.7206 24.9808 25.0855ZM29.6605 9.49604L24.5298 19.0245H11.9285L8.63018 9.49604H29.6605ZM15.0859 26.5515C14.2683 26.5515 13.6199 25.9031 13.6199 25.0855C13.6199 24.268 14.2683 23.6196 15.0859 23.6196C15.9034 23.6196 16.5518 24.268 16.5518 25.0855C16.5518 25.9031 15.8752 26.5515 15.0859 26.5515ZM22.049 26.5515C21.2314 26.5515 20.5831 25.9031 20.5831 25.0855C20.5831 24.268 21.2314 23.6196 22.049 23.6196C22.8665 23.6196 23.5149 24.268 23.5149 25.0855C23.5149 25.9031 22.8665 26.5515 22.049 26.5515Z" fill="#333333"/>
</g>
</svg>
