<svg width="22" height="29" viewBox="0 0 22 29" fill="none" xmlns="http://www.w3.org/2000/svg">
<g id="&#235;&#169;&#164;&#235;&#178;&#132;">
<path id="Vector" d="M0.376465 17.9251V27.2844C0.376465 27.6791 0.714747 28.0174 1.10942 28.0174H20.6738C21.0685 28.0174 21.4068 27.6791 21.4068 27.2844V17.9251C21.4068 16.1491 20.5329 14.5422 19.0388 13.6119C17.9957 12.9353 16.8681 12.4279 15.6841 12.0332C17.2627 10.3136 17.8265 7.94554 17.0936 5.60571C16.2197 2.81482 13.7953 1.01061 10.8916 0.982422C10.8916 0.982422 10.8916 0.982422 10.8634 0.982422C7.95979 1.01061 5.53538 2.84301 4.66147 5.60571C3.92851 7.91735 4.49232 10.3136 6.071 12.0332C4.91518 12.4279 3.78754 12.9635 2.7163 13.6119C1.27857 14.5422 0.376465 16.1491 0.376465 17.9251ZM3.53383 14.8523C4.83061 14.0348 6.26834 13.4427 7.76245 13.0763C8.04436 13.0199 8.26989 12.7944 8.32627 12.5124C8.38265 12.2305 8.26989 11.9486 8.04436 11.7795C5.7891 10.2008 5.56357 7.7764 6.12739 6.05676C6.66301 4.33712 8.2135 2.47654 10.948 2.44835C13.2033 2.47654 15.092 3.88607 15.7686 6.05676C16.3042 7.7764 16.0787 10.2008 13.8235 11.7795C13.5979 11.9486 13.4852 12.2305 13.5416 12.5124C13.5979 12.7944 13.8235 13.0199 14.1054 13.0763C15.5995 13.4146 17.009 14.0066 18.334 14.8523C19.3771 15.5289 20.0254 16.6847 20.0254 17.9251V26.5515H1.92696V17.9251C1.84239 16.6565 2.49078 15.5007 3.53383 14.8523Z" fill="#333333"/>
</g>
</svg>
